<svg width="40" height="40" viewBox="0 0 40 40" fill="none" xmlns="http://www.w3.org/2000/svg">
<circle cx="20" cy="20" r="20" fill="#92BDFF"/>
<path d="M23.9127 15.8636C23.9127 17.9973 22.1677 19.7273 20.0154 19.7273C17.8632 19.7273 16.1182 17.9973 16.1182 15.8636C16.1182 13.7299 17.8632 12 20.0154 12C22.1677 12 23.9127 13.7299 23.9127 15.8636Z" fill="#010101"/>
<path d="M23.1329 19.7275C25.1809 19.7275 26.848 21.3077 27 23.3004V28.0003C27 28.5525 26.5523 29.0003 26 29.0003H22.3535H13.7795C13.3488 29.0003 13 28.6545 13 28.2275V23.5912C13 21.4604 14.7479 19.7275 16.8973 19.7275H17.6767C17.8307 19.7275 17.9817 19.7729 18.1093 19.857L20.0151 21.1165L21.9208 19.857C22.0485 19.7729 22.1995 19.7275 22.3535 19.7275H23.1329Z" fill="#010101"/>
</svg>
