<svg width="32" height="32" viewBox="0 0 32 32" fill="none" xmlns="http://www.w3.org/2000/svg">
<rect x="0.5" y="0.5" width="31" height="31" rx="15.5" fill="#F5F5F5"/>
<rect x="0.5" y="0.5" width="31" height="31" rx="15.5" stroke="#141B34"/>
<path d="M16.5893 10.7561C16.9147 10.4306 16.9147 9.90301 16.5893 9.57757C16.2639 9.25214 15.7362 9.25214 15.4108 9.57757L9.57745 15.4109C9.25201 15.7363 9.25201 16.264 9.57745 16.5894L15.4108 22.4228C15.7362 22.7482 16.2639 22.7482 16.5893 22.4228C16.9147 22.0973 16.9147 21.5697 16.5893 21.2442L12.1786 16.8335L21.8334 16.8335C22.2936 16.8335 22.6667 16.4604 22.6667 16.0002C22.6667 15.5399 22.2936 15.1668 21.8334 15.1668L12.1786 15.1668L16.5893 10.7561Z" fill="#031B1C"/>
</svg>
