<svg width="17" height="16" viewBox="0 0 17 16" fill="none" xmlns="http://www.w3.org/2000/svg">
<path fill-rule="evenodd" clip-rule="evenodd" d="M14.4394 0H1.79589C0.798677 0 0.0090246 0.795556 0.0090246 1.77778L0 14.2222C0 15.2044 0.798677 16 1.79589 16H14.4394C15.4366 16 16.2443 15.2044 16.2443 14.2222V1.77778C16.2443 0.795556 15.4366 0 14.4394 0ZM14.4392 10.6662H10.8294C10.8294 12.1373 9.6156 13.3329 8.12203 13.3329C6.62846 13.3329 5.41465 12.1373 5.41465 10.6662H1.79579V1.77734H14.4392V10.6662ZM9.92721 6.22233H11.7321L8.12229 9.77789L4.51245 6.22233H6.31737V3.55566H9.92721V6.22233Z" fill="#202224"/>
</svg>
