<svg width="18" height="18" viewBox="0 0 18 18" fill="none" xmlns="http://www.w3.org/2000/svg">
<path d="M4.2 7.40006C5.96731 7.40006 7.4 5.96737 7.4 4.20006C7.4 2.43275 5.96731 1.00006 4.2 1.00006C2.43269 1.00006 1 2.43275 1 4.20006C1 5.96737 2.43269 7.40006 4.2 7.40006Z" stroke="#010101" stroke-width="1.5" stroke-linecap="round" stroke-linejoin="round"/>
<path d="M13.7999 7.40006C15.5672 7.40006 16.9999 5.96737 16.9999 4.20006C16.9999 2.43275 15.5672 1.00006 13.7999 1.00006C12.0325 1.00006 10.5999 2.43275 10.5999 4.20006C10.5999 5.96737 12.0325 7.40006 13.7999 7.40006Z" stroke="#010101" stroke-width="1.5" stroke-linecap="round" stroke-linejoin="round"/>
<path d="M4.2 17C5.96731 17 7.4 15.5673 7.4 13.8C7.4 12.0326 5.96731 10.6 4.2 10.6C2.43269 10.6 1 12.0326 1 13.8C1 15.5673 2.43269 17 4.2 17Z" stroke="#010101" stroke-width="1.5" stroke-linecap="round" stroke-linejoin="round"/>
<path d="M13.7999 17C15.5672 17 16.9999 15.5673 16.9999 13.8C16.9999 12.0326 15.5672 10.6 13.7999 10.6C12.0325 10.6 10.5999 12.0326 10.5999 13.8C10.5999 15.5673 12.0325 17 13.7999 17Z" stroke="#010101" stroke-width="1.5" stroke-linecap="round" stroke-linejoin="round"/>
</svg>
