<svg width="40" height="40" viewBox="0 0 40 40" fill="none" xmlns="http://www.w3.org/2000/svg">
<circle cx="20" cy="20" r="20" fill="#92BDFF"/>
<path d="M20 13.5714C20 15.5437 18.4009 17.1428 16.4286 17.1428C14.4563 17.1428 12.8572 15.5437 12.8572 13.5714C12.8572 11.5991 14.4563 10 16.4286 10C18.4009 10 20 11.5991 20 13.5714Z" fill="#010101"/>
<path d="M29.5116 19.322C29.2197 19.2256 28.8991 19.3247 28.7143 19.5711L27.0652 21.7693L24.7902 19.4943C24.5107 19.2148 24.0599 19.2148 23.7804 19.4943L22.8295 20.4452C22.6902 18.6032 21.1625 17.1426 19.2857 17.1426H18.5714C18.4304 17.1426 18.292 17.1845 18.175 17.2622L16.4286 18.4265L14.6821 17.2622C14.5652 17.1845 14.4268 17.1426 14.2857 17.1426H13.5714C11.6018 17.1426 10 18.7444 10 20.714V24.9997C10 25.3944 10.3196 25.714 10.7143 25.714H18.5714V29.2854C18.5714 29.6801 18.8911 29.9997 19.2857 29.9997H29.2857C29.6804 29.9997 30 29.6801 30 29.2854V19.9997C30 19.6917 29.8036 19.4193 29.5116 19.322ZM28.5715 28.5711H20V27.1425H28.5715V28.5711ZM28.5715 25.714H20V22.1425L20.8572 23.2854C20.9813 23.4515 21.1706 23.5551 21.3777 23.5693C21.5938 23.5836 21.7866 23.5086 21.9331 23.3613L24.2857 21.0095L26.6375 23.3613C26.7839 23.5086 26.9777 23.5827 27.1929 23.5693C27.3991 23.5542 27.5893 23.4506 27.7134 23.2854L28.5714 22.1425L28.5715 25.714Z" fill="#010101"/>
</svg>
