<svg width="40" height="40" viewBox="0 0 40 40" fill="none" xmlns="http://www.w3.org/2000/svg">
<circle cx="20" cy="20" r="20" fill="#92BDFF"/>
<path d="M27 29.3667C27 29.4499 26.9836 29.5322 26.9517 29.6091C26.9197 29.6859 26.8728 29.7558 26.8137 29.8146C26.7546 29.8734 26.6844 29.9201 26.6072 29.9519C26.53 29.9837 26.4472 30 26.3636 30H13.6364C13.5528 30 13.47 29.9837 13.3928 29.9519C13.3156 29.9201 13.2454 29.8734 13.1863 29.8146C13.1272 29.7558 13.0803 29.6859 13.0483 29.6091C13.0164 29.5322 13 29.4499 13 29.3667C13 27.519 13.7375 25.747 15.0503 24.4405C16.363 23.134 18.1435 22.4 20 22.4C21.8565 22.4 23.637 23.134 24.9497 24.4405C26.2625 25.747 27 27.519 27 29.3667ZM20 13.5333C19.2448 13.5333 18.5066 13.7562 17.8787 14.1737C17.2508 14.5913 16.7614 15.1848 16.4725 15.8791C16.1835 16.5735 16.1079 17.3375 16.2552 18.0747C16.4025 18.8118 16.7662 19.4889 17.3001 20.0203C17.8341 20.5518 18.5145 20.9137 19.2551 21.0603C19.9958 21.2069 20.7635 21.1317 21.4612 20.8441C22.1588 20.5565 22.7552 20.0694 23.1747 19.4445C23.5942 18.8196 23.8182 18.0849 23.8182 17.3333C23.8171 16.3258 23.4144 15.3599 22.6986 14.6475C21.9828 13.9351 21.0123 13.5344 20 13.5333ZM14.2727 19.2333C14.6101 19.2329 14.9336 19.0993 15.1722 18.8619C15.4108 18.6244 15.545 18.3025 15.5455 17.9667V16.7C15.5455 16.3641 15.4114 16.0419 15.1727 15.8043C14.934 15.5668 14.6103 15.4333 14.2727 15.4333C13.9352 15.4333 13.6115 15.5668 13.3728 15.8043C13.1341 16.0419 13 16.3641 13 16.7V17.9667C13.0004 18.3025 13.1347 18.6244 13.3733 18.8619C13.6118 19.0993 13.9353 19.2329 14.2727 19.2333ZM20 12.2667C20.8554 12.2675 21.6967 12.483 22.4463 12.8933C23.1958 13.3035 23.8293 13.8952 24.2882 14.6136C24.653 14.3676 25.0761 14.2209 25.5155 14.188C24.9604 13.2196 24.1578 12.4147 23.1891 11.8548C22.2204 11.2949 21.1202 11 20 11C18.8798 11 17.7796 11.2949 16.8109 11.8548C15.8422 12.4147 15.0396 13.2196 14.4845 14.188C14.9239 14.2209 15.347 14.3676 15.7118 14.6136C16.1707 13.8952 16.8042 13.3035 17.5537 12.8933C18.3033 12.483 19.1446 12.2675 20 12.2667ZM25.7273 15.4333C25.3899 15.4338 25.0664 15.5674 24.8278 15.8048C24.5892 16.0423 24.455 16.3642 24.4545 16.7V17.9667C24.4549 18.178 24.5085 18.3859 24.6103 18.5714C24.7122 18.7568 24.8591 18.9139 25.0377 19.0283C24.9406 19.446 24.7043 19.8187 24.3674 20.0859C24.0304 20.3531 23.6126 20.499 23.1818 20.5C23.013 20.5 22.8512 20.5667 22.7318 20.6855C22.6125 20.8043 22.5455 20.9654 22.5455 21.1333C22.5455 21.3013 22.6125 21.4624 22.7318 21.5812C22.8512 21.6999 23.013 21.7667 23.1818 21.7667C23.9396 21.7646 24.6718 21.4931 25.2462 21.0011C25.8206 20.5092 26.1995 19.8291 26.3145 19.0836C26.5204 18.9775 26.6931 18.8173 26.814 18.6204C26.9348 18.4235 26.9991 18.1974 27 17.9667V16.7C26.9996 16.3642 26.8653 16.0423 26.6267 15.8048C26.3882 15.5674 26.0647 15.4338 25.7273 15.4333Z" fill="#010101"/>
</svg>
